<svg width="24" height="24" viewBox="0 0 24 24" fill="none" xmlns="http://www.w3.org/2000/svg">
<path d="M16.8 13.1999H7.2C6.88174 13.1999 6.57652 13.0735 6.35147 12.8485C6.12643 12.6234 6 12.3182 6 11.9999C6 11.6817 6.12643 11.3764 6.35147 11.1514C6.57652 10.9264 6.88174 10.7999 7.2 10.7999H16.8C17.1183 10.7999 17.4235 10.9264 17.6485 11.1514C17.8736 11.3764 18 11.6817 18 11.9999C18 12.3182 17.8736 12.6234 17.6485 12.8485C17.4235 13.0735 17.1183 13.1999 16.8 13.1999Z" fill="#FDCD0B"/>
<path d="M12 2.4C13.8987 2.4 15.7548 2.96303 17.3335 4.01789C18.9122 5.07275 20.1426 6.57207 20.8692 8.32624C21.5958 10.0804 21.786 12.0106 21.4155 13.8729C21.0451 15.7351 20.1308 17.4456 18.7882 18.7882C17.4456 20.1308 15.7351 21.0451 13.8729 21.4155C12.0107 21.786 10.0804 21.5958 8.32624 20.8692C6.57207 20.1426 5.07276 18.9122 4.0179 17.3335C2.96304 15.7548 2.40001 13.8987 2.40001 12C2.40001 9.45392 3.41143 7.01212 5.21178 5.21177C7.01213 3.41143 9.45393 2.4 12 2.4ZM12 0C9.62663 0 7.30655 0.703788 5.33316 2.02236C3.35977 3.34094 1.8217 5.21508 0.913451 7.4078C0.00519941 9.60051 -0.232441 12.0133 0.230582 14.3411C0.693605 16.6689 1.83649 18.807 3.51472 20.4853C5.19295 22.1635 7.33115 23.3064 9.65892 23.7694C11.9867 24.2324 14.3995 23.9948 16.5922 23.0866C18.7849 22.1783 20.6591 20.6402 21.9776 18.6668C23.2962 16.6935 24 14.3734 24 12C24 10.4241 23.6896 8.8637 23.0866 7.4078C22.4835 5.95189 21.5996 4.62902 20.4853 3.51472C19.371 2.40042 18.0481 1.5165 16.5922 0.913446C15.1363 0.310389 13.5759 0 12 0Z" fill="#FDCD0B"/>
</svg>
