<svg width="24" height="24" viewBox="0 0 24 24" fill="none" xmlns="http://www.w3.org/2000/svg">
<path fill-rule="evenodd" clip-rule="evenodd" d="M16.8 12C16.8 12.6624 16.2624 13.2 15.6 13.2H13.2V15.6C13.2 16.2624 12.6624 16.8 12 16.8C11.3376 16.8 10.8 16.2624 10.8 15.6V13.2H8.40001C7.73761 13.2 7.2 12.6624 7.2 12C7.2 11.3376 7.73761 10.8 8.40001 10.8H10.8V8.4C10.8 7.7376 11.3376 7.2 12 7.2C12.6624 7.2 13.2 7.7376 13.2 8.4V10.8H15.6C16.2624 10.8 16.8 11.3376 16.8 12ZM12 21.6C6.7068 21.6 2.4 17.2932 2.4 12C2.4 6.7068 6.7068 2.4 12 2.4C17.2932 2.4 21.6 6.7068 21.6 12C21.6 17.2932 17.2932 21.6 12 21.6ZM12 0C5.3724 0 0 5.3724 0 12C0 18.6276 5.3724 24 12 24C18.6276 24 24 18.6276 24 12C24 5.3724 18.6276 0 12 0Z" fill="#FDCD0B"/>
</svg>
