<svg width="192" height="41" viewBox="0 0 192 41" fill="none" xmlns="http://www.w3.org/2000/svg">
<path d="M24.4277 29.7357V11.0943L33.9663 5.40894L43.5049 11.0943V29.7357L33.9663 35.4211L24.4277 29.7357Z" fill="#62B400"/>
<path d="M33.9663 5.40894L43.5049 11.0943V29.7357L33.9663 35.4211V5.40894Z" fill="#4C8C00"/>
<path d="M33.9663 16.707L24.4277 11.0943L33.9663 5.40894L33.9663 16.707Z" fill="#92E200"/>
<path d="M33.9663 24.1228L24.4277 29.7357L33.9663 35.4127V24.1228Z" fill="#92E200"/>
<path d="M33.9663 16.707L43.5049 11.0943L33.9663 5.40894L33.9663 16.707Z" fill="#62B400"/>
<path d="M33.9663 24.1228L43.5049 29.7357L33.9663 35.4127V24.1228Z" fill="#62B400"/>
<path d="M33.9674 29.9461L38.8908 27.0185V13.8119L33.9674 10.8843L29.044 13.8119V27.0185L33.9674 29.9461Z" fill="#C6EA4B"/>
<path d="M33.9676 10.876L33.9674 29.9461L38.8908 27.0185V13.8119L33.9676 10.876Z" fill="#92E200"/>
<path d="M34 0.5L21 8.23959V32.7523L34 40.5L47 32.7604V8.23959L34 0.5ZM40.1167 10.9408L35.1459 7.98079V3.89668L43.5702 8.91084L40.1167 10.9408ZM34 30.9893L29.0292 28.0293V12.9707L34 10.0107L38.9708 12.9707V28.0374L34 30.9893ZM32.8541 7.98079L27.8833 10.9408L24.4377 8.91084L32.862 3.89668V7.98079H32.8541ZM26.7374 12.9707V28.0293L23.2918 30.0592V10.9408L26.7374 12.9707ZM27.8833 30.0592L32.8541 33.0192V37.1033L24.4298 32.0892L27.8833 30.0592ZM35.1459 33.0192L40.1167 30.0592L43.5623 32.0892L35.138 37.1033V33.0192H35.1459ZM41.2626 28.0293V12.9707L44.7082 10.9408V30.0592L41.2626 28.0293Z" fill="#D7FF96"/>
<path d="M140.06 19.72C139.92 21.76 139.52 23.54 138.86 25.06C138.2 26.56 137.4 27.82 136.46 28.84C135.54 29.86 134.54 30.62 133.46 31.12C132.4 31.62 131.39 31.87 130.43 31.87C129.69 31.87 128.98 31.71 128.3 31.39C127.64 31.07 127.06 30.59 126.56 29.95C126.08 29.29 125.7 28.47 125.42 27.49C125.14 26.51 125 25.36 125 24.04C125 21.46 125.37 19.21 126.11 17.29C126.85 15.37 127.78 13.77 128.9 12.49C130.04 11.21 131.25 10.26 132.53 9.64C133.83 9.02 135.04 8.71 136.16 8.71C136.96 8.71 137.65 8.85 138.23 9.13C138.83 9.41 139.32 9.79 139.7 10.27C140.08 10.73 140.35 11.28 140.51 11.92C140.69 12.54 140.78 13.2 140.78 13.9L136.67 14.68C136.49 13.88 136.25 13.31 135.95 12.97C135.65 12.63 135.31 12.46 134.93 12.46C134.43 12.46 133.88 12.82 133.28 13.54C132.68 14.24 132.12 15.15 131.6 16.27C131.08 17.39 130.64 18.62 130.28 19.96C129.92 21.3 129.72 22.62 129.68 23.92C129.68 25.16 129.86 26.05 130.22 26.59C130.6 27.11 131.08 27.37 131.66 27.37C132.06 27.37 132.47 27.27 132.89 27.07C133.33 26.87 133.72 26.59 134.06 26.23C134.4 25.85 134.68 25.42 134.9 24.94C135.14 24.44 135.27 23.9 135.29 23.32L132.08 23.8L132.65 20.83C133.59 20.71 134.51 20.59 135.41 20.47C136.17 20.37 136.97 20.25 137.81 20.11C138.67 19.97 139.42 19.84 140.06 19.72Z" fill="#FED402"/>
<path d="M139.551 31.18L143.481 9.85L152.961 9.04C152.821 9.48 152.701 9.93 152.601 10.39C152.501 10.77 152.401 11.17 152.301 11.59C152.221 11.99 152.151 12.35 152.091 12.67C151.891 12.69 151.601 12.71 151.221 12.73C150.861 12.73 150.471 12.74 150.051 12.76C149.631 12.76 149.201 12.76 148.761 12.76C148.341 12.76 147.971 12.76 147.651 12.76L146.601 18.13C147.221 18.09 147.801 18.06 148.341 18.04C148.781 18.02 149.231 18.01 149.691 18.01C150.151 18.01 150.491 18 150.711 17.98C150.631 18.54 150.551 19.09 150.471 19.63C150.411 20.17 150.331 20.72 150.231 21.28C150.031 21.3 149.701 21.32 149.241 21.34C148.801 21.34 148.351 21.35 147.891 21.37C147.371 21.39 146.801 21.41 146.181 21.43L145.161 26.95L149.541 26.26L149.241 29.68L139.551 31.18Z" fill="#FED402"/>
<path d="M149.235 30.97C150.115 28.31 150.955 25.7 151.755 23.14C152.095 22.06 152.445 20.93 152.805 19.75C153.165 18.57 153.525 17.4 153.885 16.24C154.245 15.08 154.575 13.96 154.875 12.88C155.195 11.8 155.475 10.8 155.715 9.88C156.815 9.88 157.855 9.82 158.835 9.7C159.815 9.58 160.875 9.47 162.015 9.37C161.955 9.81 161.885 10.31 161.805 10.87C161.745 11.41 161.665 11.98 161.565 12.58C161.485 13.18 161.395 13.8 161.295 14.44C161.195 15.08 161.075 15.9 160.935 16.9C160.795 17.9 160.605 19.15 160.365 20.65H160.755C161.335 19.13 161.815 17.87 162.195 16.87C162.575 15.85 162.885 15.02 163.125 14.38C163.365 13.74 163.605 13.12 163.845 12.52C164.105 11.9 164.345 11.32 164.565 10.78C164.805 10.22 165.025 9.73 165.225 9.31C165.725 9.27 166.195 9.22 166.635 9.16C167.075 9.1 167.515 9.04 167.955 8.98C168.395 8.9 168.835 8.83 169.275 8.77C169.735 8.69 170.235 8.6 170.775 8.5C170.575 9.66 170.385 10.85 170.205 12.07C170.025 13.29 169.865 14.51 169.725 15.73C169.585 16.93 169.445 18.12 169.305 19.3C169.185 20.48 169.075 21.6 168.975 22.66C168.735 25.14 168.525 27.56 168.345 29.92L163.125 30.85C163.125 30.75 163.135 30.48 163.155 30.04C163.195 29.6 163.235 29.06 163.275 28.42C163.335 27.78 163.405 27.07 163.485 26.29C163.585 25.51 163.675 24.73 163.755 23.95C163.855 23.17 163.955 22.42 164.055 21.7C164.155 20.96 164.255 20.33 164.355 19.81H164.085C163.805 20.65 163.495 21.54 163.155 22.48C162.815 23.4 162.465 24.34 162.105 25.3C161.765 26.26 161.425 27.2 161.085 28.12C160.745 29.04 160.445 29.92 160.185 30.76C159.485 30.78 158.885 30.81 158.385 30.85C157.885 30.87 157.305 30.9 156.645 30.94L157.605 19.81H157.155C157.115 20.07 157.015 20.51 156.855 21.13C156.695 21.73 156.505 22.43 156.285 23.23C156.085 24.01 155.865 24.83 155.625 25.69C155.385 26.53 155.155 27.32 154.935 28.06C154.735 28.78 154.565 29.38 154.425 29.86C154.285 30.32 154.205 30.58 154.185 30.64L149.235 30.97Z" fill="#FED402"/>
<path d="M72.87 24.0896C72.87 25.2096 72.65 26.2296 72.21 27.1496C71.79 28.0496 71.21 28.8296 70.47 29.4896C69.75 30.1496 68.89 30.6596 67.89 31.0196C66.91 31.3796 65.85 31.5596 64.71 31.5596C63.91 31.5596 63.11 31.3496 62.31 30.9296C61.51 30.4896 60.74 29.7996 60 28.8596L62.22 24.5096C62.36 24.7696 62.57 25.0396 62.85 25.3196C63.13 25.5796 63.44 25.8096 63.78 26.0096C64.14 26.2096 64.49 26.3796 64.83 26.5196C65.19 26.6396 65.51 26.6996 65.79 26.6996C66.03 26.6996 66.28 26.6596 66.54 26.5796C66.8 26.4996 67.04 26.3796 67.26 26.2196C67.48 26.0596 67.65 25.8796 67.77 25.6796C67.91 25.4596 67.98 25.2096 67.98 24.9296C67.98 24.4496 67.82 24.0096 67.5 23.6096C67.2 23.1896 66.82 22.7996 66.36 22.4396C65.9 22.0596 65.4 21.6796 64.86 21.2996C64.32 20.9196 63.82 20.5196 63.36 20.0996C62.92 19.6796 62.54 19.2096 62.22 18.6896C61.9 18.1696 61.74 17.5896 61.74 16.9496C61.74 15.9096 62.05 14.9396 62.67 14.0396C63.29 13.1396 64.06 12.3696 64.98 11.7296C65.92 11.0696 66.94 10.5496 68.04 10.1696C69.14 9.78957 70.18 9.59957 71.16 9.59957C71.7 9.59957 72.21 9.66957 72.69 9.80957C73.17 9.92957 73.58 10.1396 73.92 10.4396C74.28 10.7196 74.56 11.0796 74.76 11.5196C74.98 11.9596 75.09 12.5096 75.09 13.1696C75.09 13.4496 75.06 13.7296 75 14.0096C74.96 14.2896 74.92 14.5896 74.88 14.9096L70.53 16.1696C70.57 16.0096 70.6 15.8496 70.62 15.6896C70.66 15.5296 70.68 15.3696 70.68 15.2096C70.68 14.6096 70.57 14.1796 70.35 13.9196C70.15 13.6396 69.88 13.4996 69.54 13.4996C69.38 13.4996 69.18 13.5596 68.94 13.6796C68.72 13.7996 68.49 13.9596 68.25 14.1596C68.03 14.3396 67.84 14.5596 67.68 14.8196C67.52 15.0796 67.44 15.3596 67.44 15.6596C67.44 16.1396 67.57 16.5396 67.83 16.8596C68.11 17.1796 68.45 17.4796 68.85 17.7596C69.25 18.0396 69.68 18.3296 70.14 18.6296C70.62 18.9096 71.06 19.2796 71.46 19.7396C71.86 20.1996 72.19 20.7796 72.45 21.4796C72.73 22.1596 72.87 23.0296 72.87 24.0896Z" fill="white"/>
<path d="M81.3506 30.5396C80.7306 30.5396 80.0706 30.5596 79.3706 30.5996C78.6906 30.6396 78.0006 30.6996 77.3006 30.7796C76.6006 30.8596 75.9106 30.9696 75.2306 31.1096C74.5706 31.2296 73.9706 31.3796 73.4306 31.5596C73.5506 30.6596 73.6906 29.6596 73.8506 28.5596C74.0106 27.4596 74.1906 26.3196 74.3906 25.1396C74.6106 23.9596 74.8206 22.7696 75.0206 21.5696C75.2406 20.3696 75.4606 19.2196 75.6806 18.1196C76.1806 15.4996 76.7106 12.8296 77.2706 10.1096L82.5206 9.41957C81.9806 11.7396 81.4606 13.9996 80.9606 16.1996C80.7406 17.1396 80.5206 18.1196 80.3006 19.1396C80.0806 20.1396 79.8706 21.1196 79.6706 22.0796C79.4706 23.0396 79.2906 23.9696 79.1306 24.8696C78.9706 25.7696 78.8406 26.5696 78.7406 27.2696C79.2406 27.2296 79.7706 27.2096 80.3306 27.2096C80.9106 27.1896 81.4206 27.1796 81.8606 27.1796C81.8806 27.5596 81.9106 27.9396 81.9506 28.3196C81.9906 28.6796 82.0306 29.0096 82.0706 29.3096C82.1306 29.6096 82.1706 29.8796 82.1906 30.1196C82.2306 30.3396 82.2606 30.4896 82.2806 30.5696C82.1206 30.5696 81.9606 30.5696 81.8006 30.5696C81.6606 30.5496 81.5106 30.5396 81.3506 30.5396Z" fill="white"/>
<path d="M99.5234 15.2696C99.5234 16.9096 99.3434 18.4596 98.9834 19.9196C98.6434 21.3596 98.1834 22.6896 97.6034 23.9096C97.0234 25.1096 96.3434 26.1896 95.5634 27.1496C94.8034 28.0896 94.0034 28.8996 93.1634 29.5796C92.3234 30.2396 91.4734 30.7496 90.6134 31.1096C89.7534 31.4496 88.9334 31.6196 88.1534 31.6196C87.4934 31.6196 86.8934 31.4996 86.3534 31.2596C85.8134 30.9996 85.3434 30.6296 84.9434 30.1496C84.5434 29.6496 84.2234 29.0196 83.9834 28.2596C83.7634 27.4796 83.6534 26.5496 83.6534 25.4696C83.6534 24.3496 83.7934 23.1696 84.0734 21.9296C84.3534 20.6896 84.7334 19.4596 85.2134 18.2396C85.6934 17.0196 86.2834 15.8596 86.9834 14.7596C87.6834 13.6596 88.4534 12.6896 89.2934 11.8496C90.1334 10.9896 91.0334 10.3096 91.9934 9.80957C92.9534 9.30957 93.9534 9.05957 94.9934 9.05957C95.8934 9.05957 96.6334 9.24957 97.2134 9.62957C97.8134 9.98957 98.2734 10.4696 98.5934 11.0696C98.9334 11.6496 99.1734 12.3096 99.3134 13.0496C99.4534 13.7896 99.5234 14.5296 99.5234 15.2696ZM88.1234 24.6896C88.1234 24.9096 88.1634 25.1396 88.2434 25.3796C88.3234 25.6196 88.4334 25.8296 88.5734 26.0096C88.7134 26.1896 88.8834 26.3496 89.0834 26.4896C89.3034 26.6096 89.5334 26.6696 89.7734 26.6696C90.6734 26.6696 91.4734 26.3596 92.1734 25.7396C92.8734 25.1196 93.4534 24.3596 93.9134 23.4596C94.3734 22.5596 94.7234 21.5996 94.9634 20.5796C95.2234 19.5596 95.3534 18.6296 95.3534 17.7896C95.3534 17.5496 95.3334 17.2896 95.2934 17.0096C95.2734 16.7296 95.2134 16.4696 95.1134 16.2296C95.0334 15.9896 94.8934 15.7896 94.6934 15.6296C94.5134 15.4496 94.2634 15.3596 93.9434 15.3596C93.3034 15.3596 92.7134 15.5196 92.1734 15.8396C91.6334 16.1596 91.1434 16.5896 90.7034 17.1296C90.2834 17.6496 89.9134 18.2496 89.5934 18.9296C89.2734 19.5896 88.9934 20.2696 88.7534 20.9696C88.5334 21.6496 88.3734 22.3196 88.2734 22.9796C88.1734 23.6396 88.1234 24.2096 88.1234 24.6896Z" fill="white"/>
<path d="M100.818 31.5296C101.278 29.3296 101.718 27.1596 102.138 25.0196C102.318 24.1196 102.498 23.1796 102.678 22.1996C102.858 21.2196 103.028 20.2596 103.188 19.3196C103.368 18.3596 103.518 17.4396 103.638 16.5596C103.778 15.6596 103.898 14.8396 103.998 14.0996C103.538 14.0396 103.068 14.0196 102.588 14.0396C102.128 14.0596 101.668 13.9996 101.208 13.8596C101.228 13.5396 101.238 13.1696 101.238 12.7496C101.238 12.3296 101.248 11.9096 101.268 11.4896C101.288 11.0296 101.308 10.5396 101.328 10.0196C101.848 10.0596 102.368 10.0896 102.888 10.1096C103.408 10.1296 103.928 10.1396 104.448 10.1396C105.468 10.1396 106.448 10.1196 107.388 10.0796C108.348 10.0196 109.228 9.95957 110.028 9.89957C110.848 9.81957 111.648 9.72957 112.428 9.62957L112.098 11.2496C111.998 11.7096 111.898 12.1796 111.798 12.6596C111.718 13.1396 111.638 13.5496 111.558 13.8896C111.118 14.0096 110.668 14.0996 110.208 14.1596C109.768 14.1996 109.328 14.2596 108.888 14.3396C108.748 15.0196 108.598 15.7796 108.438 16.6196C108.278 17.4396 108.118 18.2996 107.958 19.1996C107.818 20.0796 107.678 20.9796 107.538 21.8996C107.398 22.8196 107.258 23.6996 107.118 24.5396C106.798 26.5196 106.498 28.5696 106.218 30.6896L100.818 31.5296Z" fill="white"/>
<path d="M122.877 24.0896C122.877 25.2096 122.657 26.2296 122.217 27.1496C121.797 28.0496 121.217 28.8296 120.477 29.4896C119.757 30.1496 118.897 30.6596 117.897 31.0196C116.917 31.3796 115.857 31.5596 114.717 31.5596C113.917 31.5596 113.117 31.3496 112.317 30.9296C111.517 30.4896 110.747 29.7996 110.007 28.8596L112.227 24.5096C112.367 24.7696 112.577 25.0396 112.857 25.3196C113.137 25.5796 113.447 25.8096 113.787 26.0096C114.147 26.2096 114.497 26.3796 114.837 26.5196C115.197 26.6396 115.517 26.6996 115.797 26.6996C116.037 26.6996 116.287 26.6596 116.547 26.5796C116.807 26.4996 117.047 26.3796 117.267 26.2196C117.487 26.0596 117.657 25.8796 117.777 25.6796C117.917 25.4596 117.987 25.2096 117.987 24.9296C117.987 24.4496 117.827 24.0096 117.507 23.6096C117.207 23.1896 116.827 22.7996 116.367 22.4396C115.907 22.0596 115.407 21.6796 114.867 21.2996C114.327 20.9196 113.827 20.5196 113.367 20.0996C112.927 19.6796 112.547 19.2096 112.227 18.6896C111.907 18.1696 111.747 17.5896 111.747 16.9496C111.747 15.9096 112.057 14.9396 112.677 14.0396C113.297 13.1396 114.067 12.3696 114.987 11.7296C115.927 11.0696 116.947 10.5496 118.047 10.1696C119.147 9.78957 120.187 9.59957 121.167 9.59957C121.707 9.59957 122.217 9.66957 122.697 9.80957C123.177 9.92957 123.587 10.1396 123.927 10.4396C124.287 10.7196 124.567 11.0796 124.767 11.5196C124.987 11.9596 125.097 12.5096 125.097 13.1696C125.097 13.4496 125.067 13.7296 125.007 14.0096C124.967 14.2896 124.927 14.5896 124.887 14.9096L120.537 16.1696C120.577 16.0096 120.607 15.8496 120.627 15.6896C120.667 15.5296 120.687 15.3696 120.687 15.2096C120.687 14.6096 120.577 14.1796 120.357 13.9196C120.157 13.6396 119.887 13.4996 119.547 13.4996C119.387 13.4996 119.187 13.5596 118.947 13.6796C118.727 13.7996 118.497 13.9596 118.257 14.1596C118.037 14.3396 117.847 14.5596 117.687 14.8196C117.527 15.0796 117.447 15.3596 117.447 15.6596C117.447 16.1396 117.577 16.5396 117.837 16.8596C118.117 17.1796 118.457 17.4796 118.857 17.7596C119.257 18.0396 119.687 18.3296 120.147 18.6296C120.627 18.9096 121.067 19.2796 121.467 19.7396C121.867 20.1996 122.197 20.7796 122.457 21.4796C122.737 22.1596 122.877 23.0296 122.877 24.0896Z" fill="white"/>
</svg>
