<svg width="153" height="40" viewBox="0 0 153 40" fill="none" xmlns="http://www.w3.org/2000/svg">
<g style="mix-blend-mode:luminosity" opacity="0.5">
<path d="M4.92774 29.2357V10.5943L14.4663 4.90894L24.0049 10.5943V29.2357L14.4663 34.9211L4.92774 29.2357Z" fill="white"/>
<path d="M14.4663 4.90894L24.0049 10.5943V29.2357L14.4663 34.9211V4.90894Z" fill="white"/>
<path d="M14.4663 16.207L4.92774 10.5943L14.4663 4.90894L14.4663 16.207Z" fill="white"/>
<path d="M14.4663 23.6228L4.92774 29.2357L14.4663 34.9127V23.6228Z" fill="white"/>
<path d="M14.4663 16.207L24.0049 10.5943L14.4663 4.90894L14.4663 16.207Z" fill="white"/>
<path d="M14.4663 23.6228L24.0049 29.2357L14.4663 34.9127V23.6228Z" fill="white"/>
<path d="M14.4674 29.4461L19.3908 26.5185V13.3119L14.4674 10.3843L9.54403 13.3119V26.5185L14.4674 29.4461Z" fill="white"/>
<path d="M14.4676 10.376L14.4674 29.4461L19.3908 26.5185V13.3119L14.4676 10.376Z" fill="white"/>
<path d="M14.5 0L1.5 7.73959V32.2523L14.5 40L27.5 32.2604V7.73959L14.5 0ZM20.6167 10.4408L15.6459 7.48079V3.39668L24.0702 8.41084L20.6167 10.4408ZM14.5 30.4893L9.52918 27.5293V12.4707L14.5 9.51072L19.4708 12.4707V27.5374L14.5 30.4893ZM13.3541 7.48079L8.38328 10.4408L4.93769 8.41084L13.362 3.39668V7.48079H13.3541ZM7.23739 12.4707V27.5293L3.79179 29.5592V10.4408L7.23739 12.4707ZM8.38328 29.5592L13.3541 32.5192V36.6033L4.92979 31.5892L8.38328 29.5592ZM15.6459 32.5192L20.6167 29.5592L24.0623 31.5892L15.638 36.6033V32.5192H15.6459ZM21.7626 27.5293V12.4707L25.2082 10.4408V29.5592L21.7626 27.5293Z" fill="white"/>
<path d="M120.56 19.22C120.42 21.26 120.02 23.04 119.36 24.56C118.7 26.06 117.9 27.32 116.96 28.34C116.04 29.36 115.04 30.12 113.96 30.62C112.9 31.12 111.89 31.37 110.93 31.37C110.19 31.37 109.48 31.21 108.8 30.89C108.14 30.57 107.56 30.09 107.06 29.45C106.58 28.79 106.2 27.97 105.92 26.99C105.64 26.01 105.5 24.86 105.5 23.54C105.5 20.96 105.87 18.71 106.61 16.79C107.35 14.87 108.28 13.27 109.4 11.99C110.54 10.71 111.75 9.76 113.03 9.14C114.33 8.52 115.54 8.21 116.66 8.21C117.46 8.21 118.15 8.35 118.73 8.63C119.33 8.91 119.82 9.29 120.2 9.77C120.58 10.23 120.85 10.78 121.01 11.42C121.19 12.04 121.28 12.7 121.28 13.4L117.17 14.18C116.99 13.38 116.75 12.81 116.45 12.47C116.15 12.13 115.81 11.96 115.43 11.96C114.93 11.96 114.38 12.32 113.78 13.04C113.18 13.74 112.62 14.65 112.1 15.77C111.58 16.89 111.14 18.12 110.78 19.46C110.42 20.8 110.22 22.12 110.18 23.42C110.18 24.66 110.36 25.55 110.72 26.09C111.1 26.61 111.58 26.87 112.16 26.87C112.56 26.87 112.97 26.77 113.39 26.57C113.83 26.37 114.22 26.09 114.56 25.73C114.9 25.35 115.18 24.92 115.4 24.44C115.64 23.94 115.77 23.4 115.79 22.82L112.58 23.3L113.15 20.33C114.09 20.21 115.01 20.09 115.91 19.97C116.67 19.87 117.47 19.75 118.31 19.61C119.17 19.47 119.92 19.34 120.56 19.22Z" fill="white"/>
<path d="M120.051 30.68L123.981 9.35L133.461 8.54C133.321 8.98 133.201 9.43 133.101 9.89C133.001 10.27 132.901 10.67 132.801 11.09C132.721 11.49 132.651 11.85 132.591 12.17C132.391 12.19 132.101 12.21 131.721 12.23C131.361 12.23 130.971 12.24 130.551 12.26C130.131 12.26 129.701 12.26 129.261 12.26C128.841 12.26 128.471 12.26 128.151 12.26L127.101 17.63C127.721 17.59 128.301 17.56 128.841 17.54C129.281 17.52 129.731 17.51 130.191 17.51C130.651 17.51 130.991 17.5 131.211 17.48C131.131 18.04 131.051 18.59 130.971 19.13C130.911 19.67 130.831 20.22 130.731 20.78C130.531 20.8 130.201 20.82 129.741 20.84C129.301 20.84 128.851 20.85 128.391 20.87C127.871 20.89 127.301 20.91 126.681 20.93L125.661 26.45L130.041 25.76L129.741 29.18L120.051 30.68Z" fill="white"/>
<path d="M129.735 30.47C130.615 27.81 131.455 25.2 132.255 22.64C132.595 21.56 132.945 20.43 133.305 19.25C133.665 18.07 134.025 16.9 134.385 15.74C134.745 14.58 135.075 13.46 135.375 12.38C135.695 11.3 135.975 10.3 136.215 9.38C137.315 9.38 138.355 9.32 139.335 9.2C140.315 9.08 141.375 8.97 142.515 8.87C142.455 9.31 142.385 9.81 142.305 10.37C142.245 10.91 142.165 11.48 142.065 12.08C141.985 12.68 141.895 13.3 141.795 13.94C141.695 14.58 141.575 15.4 141.435 16.4C141.295 17.4 141.105 18.65 140.865 20.15H141.255C141.835 18.63 142.315 17.37 142.695 16.37C143.075 15.35 143.385 14.52 143.625 13.88C143.865 13.24 144.105 12.62 144.345 12.02C144.605 11.4 144.845 10.82 145.065 10.28C145.305 9.72 145.525 9.23 145.725 8.81C146.225 8.77 146.695 8.72 147.135 8.66C147.575 8.6 148.015 8.54 148.455 8.48C148.895 8.4 149.335 8.33 149.775 8.27C150.235 8.19 150.735 8.1 151.275 8C151.075 9.16 150.885 10.35 150.705 11.57C150.525 12.79 150.365 14.01 150.225 15.23C150.085 16.43 149.945 17.62 149.805 18.8C149.685 19.98 149.575 21.1 149.475 22.16C149.235 24.64 149.025 27.06 148.845 29.42L143.625 30.35C143.625 30.25 143.635 29.98 143.655 29.54C143.695 29.1 143.735 28.56 143.775 27.92C143.835 27.28 143.905 26.57 143.985 25.79C144.085 25.01 144.175 24.23 144.255 23.45C144.355 22.67 144.455 21.92 144.555 21.2C144.655 20.46 144.755 19.83 144.855 19.31H144.585C144.305 20.15 143.995 21.04 143.655 21.98C143.315 22.9 142.965 23.84 142.605 24.8C142.265 25.76 141.925 26.7 141.585 27.62C141.245 28.54 140.945 29.42 140.685 30.26C139.985 30.28 139.385 30.31 138.885 30.35C138.385 30.37 137.805 30.4 137.145 30.44L138.105 19.31H137.655C137.615 19.57 137.515 20.01 137.355 20.63C137.195 21.23 137.005 21.93 136.785 22.73C136.585 23.51 136.365 24.33 136.125 25.19C135.885 26.03 135.655 26.82 135.435 27.56C135.235 28.28 135.065 28.88 134.925 29.36C134.785 29.82 134.705 30.08 134.685 30.14L129.735 30.47Z" fill="white"/>
<path d="M53.37 23.5896C53.37 24.7096 53.15 25.7296 52.71 26.6496C52.29 27.5496 51.71 28.3296 50.97 28.9896C50.25 29.6496 49.39 30.1596 48.39 30.5196C47.41 30.8796 46.35 31.0596 45.21 31.0596C44.41 31.0596 43.61 30.8496 42.81 30.4296C42.01 29.9896 41.24 29.2996 40.5 28.3596L42.72 24.0096C42.86 24.2696 43.07 24.5396 43.35 24.8196C43.63 25.0796 43.94 25.3096 44.28 25.5096C44.64 25.7096 44.99 25.8796 45.33 26.0196C45.69 26.1396 46.01 26.1996 46.29 26.1996C46.53 26.1996 46.78 26.1596 47.04 26.0796C47.3 25.9996 47.54 25.8796 47.76 25.7196C47.98 25.5596 48.15 25.3796 48.27 25.1796C48.41 24.9596 48.48 24.7096 48.48 24.4296C48.48 23.9496 48.32 23.5096 48 23.1096C47.7 22.6896 47.32 22.2996 46.86 21.9396C46.4 21.5596 45.9 21.1796 45.36 20.7996C44.82 20.4196 44.32 20.0196 43.86 19.5996C43.42 19.1796 43.04 18.7096 42.72 18.1896C42.4 17.6696 42.24 17.0896 42.24 16.4496C42.24 15.4096 42.55 14.4396 43.17 13.5396C43.79 12.6396 44.56 11.8696 45.48 11.2296C46.42 10.5696 47.44 10.0496 48.54 9.66957C49.64 9.28957 50.68 9.09957 51.66 9.09957C52.2 9.09957 52.71 9.16957 53.19 9.30957C53.67 9.42957 54.08 9.63957 54.42 9.93957C54.78 10.2196 55.06 10.5796 55.26 11.0196C55.48 11.4596 55.59 12.0096 55.59 12.6696C55.59 12.9496 55.56 13.2296 55.5 13.5096C55.46 13.7896 55.42 14.0896 55.38 14.4096L51.03 15.6696C51.07 15.5096 51.1 15.3496 51.12 15.1896C51.16 15.0296 51.18 14.8696 51.18 14.7096C51.18 14.1096 51.07 13.6796 50.85 13.4196C50.65 13.1396 50.38 12.9996 50.04 12.9996C49.88 12.9996 49.68 13.0596 49.44 13.1796C49.22 13.2996 48.99 13.4596 48.75 13.6596C48.53 13.8396 48.34 14.0596 48.18 14.3196C48.02 14.5796 47.94 14.8596 47.94 15.1596C47.94 15.6396 48.07 16.0396 48.33 16.3596C48.61 16.6796 48.95 16.9796 49.35 17.2596C49.75 17.5396 50.18 17.8296 50.64 18.1296C51.12 18.4096 51.56 18.7796 51.96 19.2396C52.36 19.6996 52.69 20.2796 52.95 20.9796C53.23 21.6596 53.37 22.5296 53.37 23.5896Z" fill="white"/>
<path d="M61.8506 30.0396C61.2306 30.0396 60.5706 30.0596 59.8706 30.0996C59.1906 30.1396 58.5006 30.1996 57.8006 30.2796C57.1006 30.3596 56.4106 30.4696 55.7306 30.6096C55.0706 30.7296 54.4706 30.8796 53.9306 31.0596C54.0506 30.1596 54.1906 29.1596 54.3506 28.0596C54.5106 26.9596 54.6906 25.8196 54.8906 24.6396C55.1106 23.4596 55.3206 22.2696 55.5206 21.0696C55.7406 19.8696 55.9606 18.7196 56.1806 17.6196C56.6806 14.9996 57.2106 12.3296 57.7706 9.60957L63.0206 8.91957C62.4806 11.2396 61.9606 13.4996 61.4606 15.6996C61.2406 16.6396 61.0206 17.6196 60.8006 18.6396C60.5806 19.6396 60.3706 20.6196 60.1706 21.5796C59.9706 22.5396 59.7906 23.4696 59.6306 24.3696C59.4706 25.2696 59.3406 26.0696 59.2406 26.7696C59.7406 26.7296 60.2706 26.7096 60.8306 26.7096C61.4106 26.6896 61.9206 26.6796 62.3606 26.6796C62.3806 27.0596 62.4106 27.4396 62.4506 27.8196C62.4906 28.1796 62.5306 28.5096 62.5706 28.8096C62.6306 29.1096 62.6706 29.3796 62.6906 29.6196C62.7306 29.8396 62.7606 29.9896 62.7806 30.0696C62.6206 30.0696 62.4606 30.0696 62.3006 30.0696C62.1606 30.0496 62.0106 30.0396 61.8506 30.0396Z" fill="white"/>
<path d="M80.0234 14.7696C80.0234 16.4096 79.8434 17.9596 79.4834 19.4196C79.1434 20.8596 78.6834 22.1896 78.1034 23.4096C77.5234 24.6096 76.8434 25.6896 76.0634 26.6496C75.3034 27.5896 74.5034 28.3996 73.6634 29.0796C72.8234 29.7396 71.9734 30.2496 71.1134 30.6096C70.2534 30.9496 69.4334 31.1196 68.6534 31.1196C67.9934 31.1196 67.3934 30.9996 66.8534 30.7596C66.3134 30.4996 65.8434 30.1296 65.4434 29.6496C65.0434 29.1496 64.7234 28.5196 64.4834 27.7596C64.2634 26.9796 64.1534 26.0496 64.1534 24.9696C64.1534 23.8496 64.2934 22.6696 64.5734 21.4296C64.8534 20.1896 65.2334 18.9596 65.7134 17.7396C66.1934 16.5196 66.7834 15.3596 67.4834 14.2596C68.1834 13.1596 68.9534 12.1896 69.7934 11.3496C70.6334 10.4896 71.5334 9.80957 72.4934 9.30957C73.4534 8.80957 74.4534 8.55957 75.4934 8.55957C76.3934 8.55957 77.1334 8.74957 77.7134 9.12957C78.3134 9.48957 78.7734 9.96957 79.0934 10.5696C79.4334 11.1496 79.6734 11.8096 79.8134 12.5496C79.9534 13.2896 80.0234 14.0296 80.0234 14.7696ZM68.6234 24.1896C68.6234 24.4096 68.6634 24.6396 68.7434 24.8796C68.8234 25.1196 68.9334 25.3296 69.0734 25.5096C69.2134 25.6896 69.3834 25.8496 69.5834 25.9896C69.8034 26.1096 70.0334 26.1696 70.2734 26.1696C71.1734 26.1696 71.9734 25.8596 72.6734 25.2396C73.3734 24.6196 73.9534 23.8596 74.4134 22.9596C74.8734 22.0596 75.2234 21.0996 75.4634 20.0796C75.7234 19.0596 75.8534 18.1296 75.8534 17.2896C75.8534 17.0496 75.8334 16.7896 75.7934 16.5096C75.7734 16.2296 75.7134 15.9696 75.6134 15.7296C75.5334 15.4896 75.3934 15.2896 75.1934 15.1296C75.0134 14.9496 74.7634 14.8596 74.4434 14.8596C73.8034 14.8596 73.2134 15.0196 72.6734 15.3396C72.1334 15.6596 71.6434 16.0896 71.2034 16.6296C70.7834 17.1496 70.4134 17.7496 70.0934 18.4296C69.7734 19.0896 69.4934 19.7696 69.2534 20.4696C69.0334 21.1496 68.8734 21.8196 68.7734 22.4796C68.6734 23.1396 68.6234 23.7096 68.6234 24.1896Z" fill="white"/>
<path d="M81.3183 31.0296C81.7783 28.8296 82.2183 26.6596 82.6383 24.5196C82.8183 23.6196 82.9983 22.6796 83.1783 21.6996C83.3583 20.7196 83.5283 19.7596 83.6883 18.8196C83.8683 17.8596 84.0183 16.9396 84.1383 16.0596C84.2783 15.1596 84.3983 14.3396 84.4983 13.5996C84.0383 13.5396 83.5683 13.5196 83.0883 13.5396C82.6283 13.5596 82.1683 13.4996 81.7083 13.3596C81.7283 13.0396 81.7383 12.6696 81.7383 12.2496C81.7383 11.8296 81.7483 11.4096 81.7683 10.9896C81.7883 10.5296 81.8083 10.0396 81.8283 9.51957C82.3483 9.55957 82.8683 9.58957 83.3883 9.60957C83.9083 9.62957 84.4283 9.63957 84.9483 9.63957C85.9683 9.63957 86.9483 9.61957 87.8883 9.57957C88.8483 9.51957 89.7283 9.45957 90.5283 9.39957C91.3483 9.31957 92.1483 9.22957 92.9283 9.12957L92.5983 10.7496C92.4983 11.2096 92.3983 11.6796 92.2983 12.1596C92.2183 12.6396 92.1383 13.0496 92.0583 13.3896C91.6183 13.5096 91.1683 13.5996 90.7083 13.6596C90.2683 13.6996 89.8283 13.7596 89.3883 13.8396C89.2483 14.5196 89.0983 15.2796 88.9383 16.1196C88.7783 16.9396 88.6183 17.7996 88.4583 18.6996C88.3183 19.5796 88.1783 20.4796 88.0383 21.3996C87.8983 22.3196 87.7583 23.1996 87.6183 24.0396C87.2983 26.0196 86.9983 28.0696 86.7183 30.1896L81.3183 31.0296Z" fill="white"/>
<path d="M103.377 23.5896C103.377 24.7096 103.157 25.7296 102.717 26.6496C102.297 27.5496 101.717 28.3296 100.977 28.9896C100.257 29.6496 99.3974 30.1596 98.3974 30.5196C97.4174 30.8796 96.3574 31.0596 95.2174 31.0596C94.4174 31.0596 93.6174 30.8496 92.8174 30.4296C92.0174 29.9896 91.2474 29.2996 90.5074 28.3596L92.7274 24.0096C92.8674 24.2696 93.0774 24.5396 93.3574 24.8196C93.6374 25.0796 93.9474 25.3096 94.2874 25.5096C94.6474 25.7096 94.9974 25.8796 95.3374 26.0196C95.6974 26.1396 96.0174 26.1996 96.2974 26.1996C96.5374 26.1996 96.7874 26.1596 97.0474 26.0796C97.3074 25.9996 97.5474 25.8796 97.7674 25.7196C97.9874 25.5596 98.1574 25.3796 98.2774 25.1796C98.4174 24.9596 98.4874 24.7096 98.4874 24.4296C98.4874 23.9496 98.3274 23.5096 98.0074 23.1096C97.7074 22.6896 97.3274 22.2996 96.8674 21.9396C96.4074 21.5596 95.9074 21.1796 95.3674 20.7996C94.8274 20.4196 94.3274 20.0196 93.8674 19.5996C93.4274 19.1796 93.0474 18.7096 92.7274 18.1896C92.4074 17.6696 92.2474 17.0896 92.2474 16.4496C92.2474 15.4096 92.5574 14.4396 93.1774 13.5396C93.7974 12.6396 94.5674 11.8696 95.4874 11.2296C96.4274 10.5696 97.4474 10.0496 98.5474 9.66957C99.6474 9.28957 100.687 9.09957 101.667 9.09957C102.207 9.09957 102.717 9.16957 103.197 9.30957C103.677 9.42957 104.087 9.63957 104.427 9.93957C104.787 10.2196 105.067 10.5796 105.267 11.0196C105.487 11.4596 105.597 12.0096 105.597 12.6696C105.597 12.9496 105.567 13.2296 105.507 13.5096C105.467 13.7896 105.427 14.0896 105.387 14.4096L101.037 15.6696C101.077 15.5096 101.107 15.3496 101.127 15.1896C101.167 15.0296 101.187 14.8696 101.187 14.7096C101.187 14.1096 101.077 13.6796 100.857 13.4196C100.657 13.1396 100.387 12.9996 100.047 12.9996C99.8874 12.9996 99.6874 13.0596 99.4474 13.1796C99.2274 13.2996 98.9974 13.4596 98.7574 13.6596C98.5374 13.8396 98.3474 14.0596 98.1874 14.3196C98.0274 14.5796 97.9474 14.8596 97.9474 15.1596C97.9474 15.6396 98.0774 16.0396 98.3374 16.3596C98.6174 16.6796 98.9574 16.9796 99.3574 17.2596C99.7574 17.5396 100.187 17.8296 100.647 18.1296C101.127 18.4096 101.567 18.7796 101.967 19.2396C102.367 19.6996 102.697 20.2796 102.957 20.9796C103.237 21.6596 103.377 22.5296 103.377 23.5896Z" fill="white"/>
</g>
</svg>
