<svg width="30" height="30" viewBox="0 0 30 30" fill="none" xmlns="http://www.w3.org/2000/svg">
<g clip-path="url(#clip0_4957_1395)">
<path fill-rule="evenodd" clip-rule="evenodd" d="M24.0553 29.2806H5.94461C5.79236 29.2806 5.66087 29.1837 5.61243 29.0453L2.51209 19.6058L0.0138155 11.8204C-0.0277069 11.6751 0.020736 11.5159 0.145303 11.4259L14.7958 0.782318C14.9135 0.692352 15.0865 0.692352 15.2041 0.782318L29.8546 11.4259C29.9792 11.5159 30.0277 11.6751 29.9861 11.8204L27.4879 19.6058L24.3875 29.0453C24.3391 29.1837 24.2076 29.2806 24.0553 29.2806ZM7.52939 25.3636L9.99305 17.8411L3.57783 13.1975L5.30793 18.6024L7.52939 25.3636ZM3.99305 11.938L11.9031 11.9519L14.3322 4.42246L3.99305 11.938ZM14.8927 3.16986C14.9273 3.16294 14.9619 3.15602 14.9965 3.15602C15.0796 3.15602 15.1557 3.1837 15.218 3.23214L27.2872 12.0003C27.2941 12.0072 27.301 12.0072 27.3079 12.0142L27.3149 12.0211L27.3218 12.028L27.3287 12.0349H27.3356V12.0418L27.3425 12.0488C27.3495 12.0557 27.3633 12.0695 27.3702 12.0834C27.3771 12.0903 27.3841 12.0972 27.3841 12.1041V12.111H27.391V12.118L27.3979 12.1318L27.4048 12.1387V12.1526H27.4117V12.1595L27.4187 12.1733V12.1802V12.1872L27.4256 12.201V12.2079V12.2148V12.2218H27.4325V12.2287V12.2356V12.2425V12.2494V12.2564V12.2633V12.2702V12.2771V12.3048V12.3117C27.4325 12.3325 27.4325 12.3463 27.4256 12.3671V12.374V12.3809H27.4187V12.3948V12.4017L25.3633 18.8169L22.8027 26.6024C22.7543 26.7477 22.6228 26.8446 22.4706 26.8446H7.52939C7.37714 26.8446 7.24565 26.7477 7.19721 26.6024L4.63665 18.8169L2.58129 12.3948V12.3879L2.57437 12.3809V12.374V12.3671V12.3602V12.3533H2.56745V12.3463V12.3394V12.3256V12.3186V12.3117V12.3048V12.2979V12.291V12.284V12.2771V12.2702V12.2633V12.2564V12.2494V12.2425V12.2356V12.2287V12.2218L2.57437 12.2148V12.2079V12.201V12.1941V12.1872H2.58129V12.1802V12.1733L2.58821 12.1664V12.1595V12.1526L2.59513 12.1456V12.1387L2.60205 12.1318V12.1249L2.60897 12.118V12.111L2.61589 12.1041L2.62281 12.0972V12.0903L2.62973 12.0834V12.0764H2.63665V12.0695H2.64357L2.65049 12.0557V12.0488H2.65741L2.66433 12.0418V12.0349H2.67125L2.67817 12.028L2.6851 12.0211L2.69202 12.0142L2.69894 12.0072H2.70586V12.0003L14.7889 3.22522H14.7958V3.2183H14.8027V3.21138H14.8097L14.8166 3.20446H14.8235L14.8304 3.19754H14.8373L14.8443 3.19062H14.8512V3.1837H14.8581H14.865L14.8789 3.17678H14.8858L14.8927 3.16986ZM15.6678 4.42246L18.0969 11.9519L26.0069 11.938L15.6678 4.42246ZM26.4221 13.1975L20.0069 17.8411L22.4706 25.3636L24.692 18.6024L26.4221 13.1975ZM21.391 26.1387L14.9965 21.4813L8.60897 26.1387H21.391ZM14.9965 20.6924C15.0726 20.6924 15.1418 20.7131 15.2041 20.7616L21.7924 25.5643L19.2595 17.8135C19.211 17.6681 19.2664 17.509 19.391 17.419L25.9931 12.637L17.8408 12.6578C17.6886 12.6578 17.5501 12.5539 17.5017 12.4086L14.9965 4.65083L12.4913 12.4155C12.4498 12.5609 12.3114 12.6578 12.1591 12.6578L4.00689 12.637L10.609 17.419C10.7335 17.509 10.7889 17.6681 10.7405 17.8135L8.20759 25.5643L14.7958 20.7616C14.8512 20.7131 14.9273 20.6924 14.9965 20.6924ZM6.20067 28.5816H23.7993L26.8166 19.3844L29.2387 11.8481L14.9965 1.50204L0.76122 11.8481L3.18337 19.3913L6.20067 28.5816Z" fill="black"/>
<path fill-rule="evenodd" clip-rule="evenodd" d="M14.9965 20.6919C15.0726 20.6919 15.1418 20.7127 15.2041 20.7611L21.7924 25.5639L19.2595 17.813C19.211 17.6677 19.2664 17.5085 19.391 17.4186L25.9931 12.6365L17.8408 12.6573C17.6886 12.6573 17.5501 12.5535 17.5017 12.4082L14.9965 4.65039L12.4913 12.4151C12.4498 12.5604 12.3114 12.6573 12.1591 12.6573L4.0069 12.6365L10.609 17.4186C10.7335 17.5085 10.7889 17.6677 10.7405 17.813L8.20759 25.5639L14.7958 20.7611C14.8512 20.7127 14.9273 20.6919 14.9965 20.6919Z" fill="#FFD33A"/>
<path fill-rule="evenodd" clip-rule="evenodd" d="M20.0069 17.8409L22.4706 25.3634L24.692 18.6021L26.4221 13.1973L20.0069 17.8409Z" fill="#FFBE34"/>
<path fill-rule="evenodd" clip-rule="evenodd" d="M27.4187 12.4016L25.3633 18.8168L22.8028 26.6023C22.7543 26.7476 22.6228 26.8445 22.4706 26.8445H7.5294C7.37715 26.8445 7.24566 26.7476 7.19722 26.6023L4.63666 18.8168L2.5813 12.3947C2.53286 12.2494 2.58822 12.0902 2.70587 12.0002L14.7889 3.22514L14.8927 3.16977C15.0034 3.13517 15.1211 3.15593 15.218 3.23206L27.2872 12.0002C27.4187 12.0971 27.4671 12.2494 27.4187 12.4016ZM6.20068 28.5815H23.7993L26.8166 19.3843L29.2387 11.848L14.9965 1.50195L0.76123 11.848L3.18338 19.3912L6.20068 28.5815Z" fill="#FFD33A"/>
<path fill-rule="evenodd" clip-rule="evenodd" d="M21.391 26.1389L14.9965 21.4814L8.60895 26.1389H21.391Z" fill="#FFBE34"/>
<path fill-rule="evenodd" clip-rule="evenodd" d="M7.52938 25.3643L9.99304 17.8418L3.57782 13.1982L5.30792 18.6031L7.52938 25.3643Z" fill="#FFBE34"/>
<path fill-rule="evenodd" clip-rule="evenodd" d="M3.99304 11.9384L11.9031 11.9523L14.3321 4.42285L3.99304 11.9384Z" fill="#FFBE34"/>
<path fill-rule="evenodd" clip-rule="evenodd" d="M15.6678 4.42285L18.0969 11.9523L26.0069 11.9384L15.6678 4.42285Z" fill="#FFBE34"/>
</g>
<defs>
<clipPath id="clip0_4957_1395">
<rect width="30" height="30" fill="white"/>
</clipPath>
</defs>
</svg>
