<svg width="45" height="44" viewBox="0 0 45 44" fill="none" xmlns="http://www.w3.org/2000/svg">
<g clip-path="url(#clip0_4957_1065)">
<path d="M38.6022 0H16.6306C15.9182 0 15.3406 0.577607 15.3406 1.29007V5.10274H11.2664C10.554 5.10274 9.97637 5.68035 9.97637 6.39281V10.0743H5.89786C5.1854 10.0743 4.60779 10.6519 4.60779 11.3644V42.7099C4.60779 43.4224 5.1854 44 5.89786 44H27.8693C28.5818 44 29.1594 43.4224 29.1594 42.7099V39.2899H33.2379C33.9504 39.2899 34.528 38.7123 34.528 37.9998V34.4486H38.6021C39.3146 34.4486 39.8922 33.871 39.8922 33.1585V1.29007C39.8922 0.577607 39.3146 0 38.6022 0ZM26.5792 41.4199H7.18793V12.6545H26.5792V41.4199ZM31.9479 36.7097H29.1595V11.3644C29.1595 10.6519 28.5819 10.0743 27.8694 10.0743H12.5565V7.68289H31.9479V36.7097ZM37.3121 31.8684H34.528V6.39281C34.528 5.68035 33.9504 5.10274 33.238 5.10274H17.9207V2.58014H37.3121V31.8684Z" fill="#FFD400"/>
<path d="M10.839 27.7528L15.9518 34.0783C16.1968 34.3814 16.5655 34.5574 16.9551 34.5574H16.9583C17.349 34.5565 17.7182 34.3785 17.9624 34.0734L22.9322 27.8629C23.3122 27.3879 23.3089 26.7118 22.924 26.2407L17.812 19.9832C17.5669 19.6832 17.2002 19.5093 16.8129 19.5093H16.8099C16.4215 19.5102 16.0543 19.6859 15.81 19.9878L10.8395 26.1304C10.4567 26.6034 10.4565 27.2796 10.839 27.7528ZM16.8177 22.8443L20.2659 27.0653L16.9501 31.2089L13.5016 26.9424L16.8177 22.8443Z" fill="#FFD400"/>
<path d="M22.8003 39.0181C23.5128 39.0181 24.0904 38.4405 24.0904 37.7281C24.0904 37.0156 23.5128 36.438 22.8003 36.438C22.0878 36.438 21.5103 37.0156 21.5103 37.7281C21.5103 38.4405 22.0878 39.0181 22.8003 39.0181Z" fill="#FFD400"/>
<path d="M11.3138 17.7051C12.0262 17.7051 12.6038 17.1276 12.6038 16.4151C12.6038 15.7026 12.0262 15.125 11.3138 15.125C10.6013 15.125 10.0237 15.7026 10.0237 16.4151C10.0237 17.1276 10.6013 17.7051 11.3138 17.7051Z" fill="#FFD400"/>
</g>
<defs>
<clipPath id="clip0_4957_1065">
<rect width="44" height="44" fill="white" transform="translate(0.25)"/>
</clipPath>
</defs>
</svg>
