<svg width="45" height="44" viewBox="0 0 45 44" fill="none" xmlns="http://www.w3.org/2000/svg">
<g clip-path="url(#clip0_4957_1033)">
<path d="M38.4545 0H13.213C12.5011 0 11.9239 0.577173 11.9239 1.2891V5.41113H7.04545C6.33352 5.41113 5.75635 5.9883 5.75635 6.70023V42.7109C5.75635 43.4228 6.33352 44 7.04545 44H32.2869C32.9988 44 33.576 43.4228 33.576 42.7109V38.5889H38.4545C39.1664 38.5889 39.7436 38.0117 39.7436 37.2998V1.2891C39.7436 0.577173 39.1665 0 38.4545 0ZM30.9979 41.4218H8.33455V7.98933H30.9978V41.4218H30.9979ZM37.1654 36.0107H33.5761V6.70023C33.5761 5.9883 32.9989 5.41113 32.287 5.41113H14.5021V2.5782H37.1654L37.1654 36.0107Z" fill="#FFD400"/>
<path d="M19.0764 32.1251C19.1808 32.1785 19.2913 32.2171 19.4048 32.2404C19.5341 32.267 19.6678 32.2667 19.7991 32.253C20.092 32.2222 20.2605 32.1721 21.4585 31.4449C22.0936 31.0485 23.0537 30.3944 24.0211 29.5292C26.5598 27.2586 27.9017 24.6641 27.9017 22.0263C27.9017 19.3345 25.7101 17.1445 23.0161 17.1445C21.7508 17.1445 20.5537 17.6451 19.6614 18.4844C18.7695 17.6451 17.5732 17.1445 16.31 17.1445H16.297C15.0348 17.1445 13.8479 17.6352 12.9538 18.5269C11.9963 19.4818 11.4429 20.8376 11.4314 22.2527C11.4309 22.2676 11.4306 22.2826 11.4306 22.2977C11.4307 28.1441 18.7643 31.9653 19.0764 32.1251ZM14.0095 22.2976C14.0095 21.5462 14.2884 20.8372 14.7745 20.3523C15.0636 20.064 15.5592 19.7206 16.3067 19.7226C17.2529 19.7226 18.1179 20.3144 18.4595 21.1952C18.6518 21.6914 19.1293 22.0184 19.6614 22.0184C20.1936 22.0184 20.671 21.6914 20.8634 21.1952C21.2049 20.3144 22.07 19.7226 23.0162 19.7226C24.2884 19.7226 25.3236 20.756 25.3236 22.0262C25.3236 23.8832 24.3598 25.7132 22.4588 27.4654C21.3941 28.4468 20.3059 29.1419 19.6796 29.5056C19.0601 29.1351 18.0242 28.4619 17.0045 27.5574C14.5522 25.3821 14.019 23.5206 14.0091 22.3316C14.0093 22.3204 14.0095 22.309 14.0095 22.2976Z" fill="#FFD400"/>
<path d="M12.7437 13.3276C13.4556 13.3276 14.0327 12.7505 14.0327 12.0386C14.0327 11.3266 13.4556 10.7495 12.7437 10.7495C12.0317 10.7495 11.4546 11.3266 11.4546 12.0386C11.4546 12.7505 12.0317 13.3276 12.7437 13.3276Z" fill="#FFD400"/>
<path d="M27.1555 38.8306C27.8674 38.8306 28.4445 38.2534 28.4445 37.5415C28.4445 36.8296 27.8674 36.2524 27.1555 36.2524C26.4435 36.2524 25.8664 36.8296 25.8664 37.5415C25.8664 38.2534 26.4435 38.8306 27.1555 38.8306Z" fill="#FFD400"/>
</g>
<defs>
<clipPath id="clip0_4957_1033">
<rect width="44" height="44" fill="white" transform="translate(0.75)"/>
</clipPath>
</defs>
</svg>
