<svg width="45" height="44" viewBox="0 0 45 44" fill="none" xmlns="http://www.w3.org/2000/svg">
<path d="M39.946 18.5066C42.1427 15.4272 41.2 11.9808 39.2183 9.91662C37.7157 8.35146 35.4805 7.40436 33.2136 7.72473C33.6194 5.3833 32.6336 3.20799 31.1232 1.82519C29.0091 -0.110361 25.5859 -0.787025 22.7244 1.31094C19.6568 -0.902351 16.2905 -0.0385179 14.3021 1.87039C12.7875 3.32443 11.8992 5.51985 12.2727 7.76778C11.7069 7.68159 11.1316 7.67188 10.553 7.74045C8.9242 7.93321 7.38052 8.74574 6.20637 10.0282C5.04855 11.2929 4.3718 12.8793 4.30064 14.4951C4.23636 15.9543 4.65866 17.3315 5.53014 18.534C3.33068 21.6142 4.27332 25.0621 6.2557 27.127C7.56185 28.4875 9.42151 29.3812 11.3744 29.3812C11.6681 29.3812 11.964 29.36 12.2605 29.3181C11.8545 31.6598 12.8402 33.8354 14.3507 35.2183C15.5598 36.3252 17.197 37.0204 18.9123 37.0204C19.7526 37.0204 20.6114 36.8523 21.448 36.4854V37.0528C21.448 40.8834 24.5644 43.9999 28.395 43.9999H32.3064C33.0183 43.9999 33.5954 43.4227 33.5954 42.7108C33.5954 41.9989 33.0183 41.4218 32.3064 41.4218H28.395C25.9859 41.4218 24.0261 39.4618 24.0261 37.0528V36.4568C26.7444 37.6494 29.5588 36.7148 31.3419 35.0029C32.9073 33.5003 33.8545 31.2649 33.5341 28.9978C33.8925 29.0599 34.2471 29.0902 34.5955 29.0902C36.523 29.0902 38.2626 28.1871 39.4336 26.908C41.3698 24.7932 42.0464 21.3687 39.946 18.5066ZM16.0875 3.73014C17.3612 2.50735 19.6344 1.82613 21.8492 3.92951C22.3554 4.41033 23.1522 4.4007 23.6467 3.90812C24.5303 3.02813 25.5731 2.57576 26.6605 2.59913C27.6449 2.62061 28.6115 3.02099 29.3823 3.7267C30.6895 4.92345 31.5209 7.1523 29.5789 9.50619C29.1096 9.99663 24.7011 14.6044 22.737 16.6571C20.7834 14.6152 16.4005 10.0339 15.9056 9.51659C15.9054 9.51642 15.9053 9.51633 15.9052 9.51616C15.8961 9.50653 15.8878 9.49794 15.8814 9.49124C14.6117 8.02327 14.1371 5.60261 16.0875 3.73014ZM14.044 25.744C11.9579 27.5366 9.51226 26.7964 8.11554 25.3414C6.81583 23.9876 6.04369 21.6218 8.14484 19.4095C8.62548 18.9033 8.61603 18.1066 8.12344 17.6121C6.73196 16.2152 6.18755 13.8666 8.10797 11.769C8.8649 10.9423 9.8408 10.4208 10.8561 10.3006C11.9703 10.1688 13.094 10.5385 14.1094 11.3685C14.8537 12.1465 19.1054 16.5905 20.9515 18.5202L14.044 25.744ZM29.5564 33.1433C28.2027 34.4428 25.8368 35.215 23.6247 33.1141C23.1605 32.6643 22.3186 32.6231 21.8272 33.1354C20.9435 34.0154 19.9003 34.4659 18.8133 34.4444C17.8289 34.423 16.8623 34.0225 16.0915 33.3168C14.7839 32.1197 13.9534 29.8899 15.8977 27.5351L22.7756 20.3428L29.9588 27.2155C31.7506 29.3014 31.0113 31.7465 29.5564 33.1433ZM37.532 25.1672C36.3354 26.4743 34.1064 27.3055 31.7526 25.3636L24.5596 18.4816C26.4875 16.4665 30.8986 11.8561 31.429 11.3017C33.5152 9.50748 35.9614 10.2467 37.3585 11.702C38.6582 13.0559 39.4304 15.4217 37.3292 17.634C36.8486 18.1401 36.858 18.9369 37.3506 19.4314C38.2307 20.3149 38.6834 21.3572 38.6597 22.4453C38.6382 23.4298 38.2377 24.3964 37.532 25.1672Z" fill="#FFD400"/>
</svg>
