<svg width="45" height="44" viewBox="0 0 45 44" fill="none" xmlns="http://www.w3.org/2000/svg">
<g clip-path="url(#clip0_4957_1045)">
<path d="M39.5556 8.46131C38.2488 6.81634 36.6973 5.29113 34.95 4.06587C33.168 2.79395 31.2057 1.78477 29.1364 1.08806C29.112 0.935131 29.0604 0.785635 28.9806 0.647309C28.7503 0.248567 28.325 0.00292969 27.8645 0.00292969H16.6359C16.1755 0.00292969 15.75 0.248567 15.5199 0.647309C15.4397 0.786151 15.3881 0.936334 15.3638 1.08987C13.3057 1.78537 11.3531 2.79026 9.57843 4.05487C3.84518 8.07064 0.197223 14.9436 0.250577 21.9976C0.250577 27.8785 2.53769 33.4043 6.69067 37.5573C10.8436 41.7101 16.3694 43.9973 22.2503 43.9973C34.6036 44.0076 44.2834 33.9169 44.25 21.9977C44.2499 17.0568 42.6267 12.376 39.5556 8.46131ZM20.9614 38.4502V41.3768C17.7071 41.1654 14.6088 40.1563 11.8956 38.442L13.618 36.0715C15.8293 37.4324 18.333 38.2489 20.9614 38.4502ZM23.5389 38.4502C26.1675 38.2489 28.671 37.4324 30.8825 36.0715L32.6048 38.442C29.8916 40.1563 26.7933 41.1654 23.5389 41.3768V38.4502ZM32.0991 31.8465C31.5885 32.3571 31.0448 32.8224 30.4733 33.242C30.4613 33.2501 30.4488 33.2571 30.4369 33.2657C30.426 33.2737 30.4163 33.2826 30.4056 33.2909C28.0487 34.9994 25.2213 35.9224 22.2501 35.9224C14.2931 35.9524 8.26777 29.3101 8.32542 21.9976C8.32542 15.5608 12.956 9.85102 19.2324 8.36637L21.134 11.6602C21.3643 12.0589 21.7897 12.3046 22.2501 12.3046C22.7105 12.3046 23.136 12.0589 23.3662 11.6602L25.2478 8.40108C28.142 9.07046 30.7843 10.6592 32.7615 12.9358C34.9626 15.4704 36.1749 18.6886 36.1749 21.9976C36.1851 25.6234 34.7368 29.2289 32.0991 31.8465ZM2.82809 21.9976C2.82809 20.371 3.02862 18.7757 3.42144 17.2348L6.21744 18.1433C5.9084 19.3999 5.74808 20.6932 5.74808 21.9976C5.74808 23.315 5.90221 24.6082 6.19983 25.8577L3.41276 26.7633C3.02691 25.2241 2.82809 23.6264 2.82809 21.9976ZM16.4009 3.46204L17.8965 6.05262C16.3974 6.48289 14.964 7.12461 13.6393 7.95328L11.9174 5.58325C13.3172 4.68954 14.8257 3.97368 16.4009 3.46204ZM28.1002 3.46092C29.6769 3.97093 31.1864 4.68533 32.5869 5.57801L30.8529 7.96462C29.5261 7.14256 28.0893 6.50772 26.5858 6.08389L28.1002 3.46092ZM38.2853 18.1426L41.0808 17.2343C41.4724 18.7749 41.6724 20.3704 41.6724 21.9977C41.6724 23.6264 41.4736 25.2242 41.0877 26.7634L38.3007 25.8578C38.5983 24.6083 38.7525 23.3151 38.7525 21.9978C38.7525 20.6916 38.5929 19.3982 38.2853 18.1426ZM37.5277 10.0521C38.6788 11.5196 39.5987 13.1089 40.2772 14.7852L37.4768 15.6951C36.5099 13.3828 34.9196 11.1723 32.9336 9.4857L34.6658 7.10141C35.7154 7.98008 36.6774 8.96822 37.5277 10.0521ZM25.6324 2.58036L22.2503 8.43837L18.8681 2.58036H25.6324ZM6.97721 10.0589C7.82787 8.97518 8.78997 7.98687 9.83919 7.10785L11.5644 9.48243C9.67612 11.0883 7.99593 13.3553 7.02798 15.6966L4.22708 14.7864C4.90609 13.1129 5.82609 11.5255 6.97721 10.0589ZM4.20672 29.2155L6.99164 28.3106C7.95649 30.6588 9.53049 32.8362 11.535 34.5532L9.81359 36.9226C7.40705 34.9347 5.34409 32.124 4.20672 29.2155ZM35.9872 35.7347C35.5693 36.1526 35.1348 36.548 34.6868 36.9226L32.9654 34.5532C34.8695 32.9446 36.568 30.6428 37.5088 28.3105L40.2937 29.2154C39.3302 31.6288 37.8785 33.8434 35.9872 35.7347Z" fill="#FFD400"/>
<path d="M25.8809 20.2636C26.3648 20.4874 26.8954 20.6058 27.4444 20.6058C28.4403 20.6058 29.3765 20.218 30.0807 19.5139C30.7849 18.8097 31.1727 17.8735 31.1727 16.8776C31.1727 15.8818 30.7849 14.9455 30.0807 14.2413C29.3766 13.5372 28.4403 13.1493 27.4444 13.1493C26.4486 13.1493 25.5124 13.5372 24.8081 14.2413C23.6747 15.3748 23.4252 17.0624 24.0594 18.44L22.3243 20.1751L20.5161 18.367C20.7399 17.8831 20.8584 17.3525 20.8584 16.8035C20.8584 15.8076 20.4705 14.8714 19.7663 14.1672C19.0623 13.463 18.1259 13.0752 17.1301 13.0752C16.1342 13.0752 15.198 13.463 14.4938 14.1671C13.7896 14.8713 13.4018 15.8075 13.4018 16.8035C13.4018 17.7994 13.7896 18.7356 14.4938 19.4398C15.1979 20.1439 16.1342 20.5318 17.1301 20.5318C17.6791 20.5318 18.2097 20.4133 18.6936 20.1896L20.5017 21.9977L18.67 23.8294C18.1728 23.5902 17.6243 23.4635 17.0562 23.4635C16.0603 23.4635 15.1241 23.8514 14.4199 24.5554C13.7157 25.2596 13.3279 26.1959 13.3279 27.1917C13.3279 28.1876 13.7157 29.1238 14.4199 29.828C15.124 30.5322 16.0603 30.92 17.0562 30.92C18.052 30.92 18.9882 30.5322 19.6925 29.8281C20.8119 28.7087 21.0682 27.049 20.4636 25.681L22.3244 23.8203L24.0836 25.5795C23.42 26.9661 23.661 28.6809 24.8082 29.8282C25.5124 30.5324 26.4487 30.9201 27.4445 30.9201C28.4404 30.9201 29.3766 30.5323 30.0808 29.8282C30.785 29.124 31.1728 28.1878 31.1728 27.1918C31.1728 26.196 30.785 25.2597 30.0808 24.5555C29.3767 23.8514 28.4404 23.4635 27.4445 23.4635C26.9148 23.4635 26.4023 23.5743 25.9323 23.7831L24.1469 21.9977L25.8809 20.2636ZM26.6307 16.0639C26.8481 15.8465 27.1371 15.7269 27.4444 15.7269C27.7518 15.7269 28.0407 15.8465 28.2581 16.0639C28.4755 16.2813 28.5952 16.5702 28.5952 16.8775C28.5952 17.1849 28.4755 17.4738 28.2581 17.6912C28.0408 17.9086 27.7518 18.0282 27.4444 18.0282C27.1371 18.0282 26.8482 17.9085 26.6307 17.6912C26.182 17.2426 26.182 16.5126 26.6307 16.0639ZM16.3164 17.6173C16.0991 17.3999 15.9794 17.111 15.9794 16.8037C15.9794 16.4962 16.0991 16.2073 16.3164 15.9899C16.5338 15.7726 16.8228 15.6529 17.1301 15.6529C17.4375 15.6529 17.7264 15.7726 17.9439 15.9899C18.1612 16.2073 18.2809 16.4962 18.2809 16.8037C18.2809 17.111 18.1612 17.3999 17.9439 17.6174C17.7265 17.8347 17.4375 17.9544 17.1301 17.9544C16.8228 17.9544 16.5338 17.8347 16.3164 17.6173ZM17.8698 28.0056C17.6524 28.2229 17.3634 28.3427 17.0561 28.3427C16.7487 28.3427 16.4598 28.223 16.2424 28.0056C16.025 27.7883 15.9053 27.4993 15.9053 27.1919C15.9053 26.8846 16.025 26.5956 16.2424 26.3782C16.4597 26.1608 16.7487 26.0411 17.0561 26.0411C17.3634 26.0411 17.6524 26.1609 17.8698 26.3782C18.3185 26.8268 18.3185 27.5569 17.8698 28.0056ZM28.2581 26.3782C28.4754 26.5956 28.5951 26.8846 28.5951 27.1919C28.5951 27.4993 28.4754 27.7883 28.2581 28.0056C28.0407 28.223 27.7517 28.3427 27.4443 28.3427C27.137 28.3427 26.8481 28.2229 26.6306 28.0056C26.182 27.557 26.182 26.8268 26.6306 26.3783C26.848 26.1609 27.137 26.0412 27.4443 26.0412C27.7518 26.0411 28.0407 26.1608 28.2581 26.3782Z" fill="#FFD400"/>
</g>
<defs>
<clipPath id="clip0_4957_1045">
<rect width="44" height="44" fill="white" transform="translate(0.25)"/>
</clipPath>
</defs>
</svg>
