<svg width="32" height="30" viewBox="0 0 32 30" fill="none" xmlns="http://www.w3.org/2000/svg">
<path d="M23.2405 14.0143C23.204 14.1567 23.0581 14.2635 22.8757 14.2635L21.5261 14.2991L21.4896 15.6162C21.4896 15.7586 21.3802 15.901 21.2343 15.9366C21.0883 15.9722 20.906 15.901 20.833 15.7586L20.1399 14.6195L18.9727 15.2602C18.8267 15.3314 18.6444 15.2958 18.5349 15.189C18.4255 15.0822 18.389 14.9043 18.462 14.7619L19.1186 13.6227L17.9513 12.9464C17.8054 12.8752 17.7324 12.6972 17.8054 12.5548C17.8419 12.4124 17.9878 12.3056 18.1702 12.3056L19.5198 12.27L19.5563 10.9529C19.5563 10.9529 19.5563 10.9529 19.5563 10.9173C18.6444 9.24427 16.857 8.21195 14.8872 8.21195H13.1728C11.3489 8.21195 9.8898 9.63584 9.8898 11.4157V12.4836H12.808C13.0268 12.4836 13.1728 12.626 13.1728 12.8396V13.6939H5.87728V12.8396C5.87728 12.626 6.02319 12.4836 6.24206 12.4836H9.16025V11.4157C9.16025 9.24427 10.9476 7.5 13.1728 7.5H14.8872C17.2947 7.5 19.4833 8.9239 20.4318 11.0953L20.906 11.8785L22.0732 11.2377C22.2191 11.1665 22.4015 11.2021 22.511 11.3089C22.6204 11.4157 22.6569 11.5937 22.5839 11.7361L21.9273 12.8752L23.0946 13.5516C23.204 13.6939 23.277 13.8719 23.2405 14.0143ZM13.1728 14.4415H5.87728C3.28739 15.723 1.5 18.3572 1.5 21.4186C1.5 25.7615 5.07478 29.25 9.52502 29.25C13.9753 29.25 17.55 25.7615 17.55 21.4186C17.55 18.3928 15.7627 15.7586 13.1728 14.4415Z" fill="#727489"/>
<path d="M16 8C16 3.58172 19.5817 0 24 0C28.4183 0 32 3.58172 32 8C32 12.4183 28.4183 16 24 16C19.5817 16 16 12.4183 16 8Z" fill="#FA5926"/>
<path d="M21.1868 6.008C21.2428 5.272 21.5268 4.696 22.0388 4.28C22.5508 3.864 23.2148 3.656 24.0308 3.656C24.5748 3.656 25.0428 3.756 25.4348 3.956C25.8348 4.148 26.1348 4.412 26.3348 4.748C26.5428 5.084 26.6468 5.464 26.6468 5.888C26.6468 6.384 26.5028 6.812 26.2148 7.172C25.9348 7.532 25.5668 7.764 25.1108 7.868L25.1108 7.928C25.6308 8.056 26.0428 8.308 26.3468 8.684C26.6508 9.06 26.8028 9.552 26.8028 10.16C26.8028 10.616 26.6988 11.028 26.4908 11.396C26.2828 11.756 25.9708 12.04 25.5548 12.248C25.1388 12.456 24.6388 12.56 24.0548 12.56C23.2068 12.56 22.5108 12.34 21.9668 11.9C21.4228 11.452 21.1188 10.82 21.0548 10.004L22.1108 10.004C22.1668 10.484 22.3628 10.876 22.6988 11.18C23.0348 11.484 23.4828 11.636 24.0428 11.636C24.6028 11.636 25.0268 11.492 25.3148 11.204C25.6108 10.908 25.7588 10.528 25.7588 10.064C25.7588 9.464 25.5588 9.032 25.1588 8.768C24.7588 8.504 24.1548 8.372 23.3468 8.372L23.0708 8.372L23.0708 7.46L23.3588 7.46C24.0948 7.452 24.6508 7.332 25.0268 7.1C25.4028 6.86 25.5908 6.492 25.5908 5.996C25.5908 5.572 25.4508 5.232 25.1708 4.976C24.8988 4.72 24.5068 4.592 23.9948 4.592C23.4988 4.592 23.0988 4.72 22.7948 4.976C22.4908 5.232 22.3108 5.576 22.2548 6.008L21.1868 6.008Z" fill="white"/>
</svg>
