<svg width="24" height="24" viewBox="0 0 24 24" fill="none" xmlns="http://www.w3.org/2000/svg">
<path d="M11.8318 11.0971C12.5073 11.0971 13.0567 10.5477 13.0567 9.87216C13.0567 9.19695 12.5073 8.64755 11.8318 8.64755C11.1566 8.64755 10.6072 9.19695 10.6072 9.87216C10.6072 10.5477 11.1566 11.0971 11.8318 11.0971Z" fill="#727489"/>
<path d="M10.459 13.6734C11.3308 14.0122 12.326 14.0476 13.2296 13.7723C13.8896 13.5711 14.5037 13.2005 14.9977 12.7064C15.8025 11.9017 16.2472 10.8322 16.2472 9.69578V8.86288C16.2472 7.78993 16.4765 6.75226 16.9319 5.77814L17.306 4.99109C17.455 4.67106 17.2292 4.30282 16.8684 4.30282C16.6849 4.30282 16.5119 4.41226 16.4343 4.58166L15.072 7.47227C15.0014 7.62406 14.8354 7.70523 14.6767 7.66636C14.5143 7.63108 14.4013 7.48989 14.4013 7.32402V2.28401C14.4013 1.96993 14.1437 1.71229 13.8295 1.71229C13.5189 1.71229 13.2613 1.9664 13.2613 2.28401V6.12052C13.2613 6.31462 13.106 6.47346 12.9084 6.47346C12.7143 6.47346 12.5554 6.31462 12.5554 6.12052V1.27465C12.5554 0.95695 12.2978 0.706375 11.9838 0.706375C11.6696 0.706375 11.4154 0.960482 11.4154 1.27465V6.12052C11.4154 6.31462 11.2565 6.47346 11.0625 6.47346C10.8684 6.47346 10.7095 6.31462 10.7095 6.12052V2.52403C10.7095 2.22051 10.459 1.9558 10.1414 1.9558C9.82374 1.9558 9.56955 2.20991 9.56955 2.52403V6.12052C9.56955 6.31462 9.41083 6.47346 9.21661 6.47346C9.01894 6.47346 8.86367 6.31462 8.86367 6.12052V3.62874C8.86367 3.31108 8.60258 3.05698 8.29186 3.05698C7.97787 3.05698 7.72367 3.31462 7.72367 3.62874V9.69578C7.72367 11.4499 8.82489 13.0487 10.459 13.6734ZM11.832 7.94167C12.8978 7.94167 13.7624 8.80636 13.7624 9.87225C13.7624 10.9381 12.8978 11.8028 11.832 11.8028C10.7695 11.8028 9.90129 10.9381 9.90129 9.87225C9.90129 8.80636 10.7695 7.94167 11.832 7.94167Z" fill="#727489"/>
<path d="M21.6897 22.5877H15.8784L14.7449 21.3063H12.8787V18.6455C12.891 18.6445 12.9034 18.644 12.9154 18.6429C17.5531 18.177 21.0506 14.3052 21.0506 9.63934C21.0506 7.37344 20.2072 5.19931 18.679 3.52637C18.552 3.38876 18.3402 3.3711 18.1954 3.48755C18.0506 3.60401 18.0226 3.81227 18.1284 3.96755C19.0107 5.22404 19.4765 6.70638 19.4765 8.24873C19.4765 11.9185 16.8217 14.9732 13.332 15.6051V14.4746C12.8978 14.6017 12.446 14.6617 11.9872 14.6617C11.412 14.6617 10.8577 14.5664 10.332 14.3758V15.5373C7.01021 14.7766 4.52256 11.8009 4.52256 8.24873C4.52256 6.70991 4.98838 5.22757 5.87418 3.96755C5.98016 3.81227 5.94845 3.60401 5.80369 3.48755C5.65893 3.3711 5.44713 3.38876 5.32374 3.52637C3.79186 5.19931 2.9519 7.37344 2.9519 9.63934C2.9519 14.3052 6.44598 18.177 11.0837 18.6429C11.0954 18.644 11.1076 18.6444 11.1194 18.6455V21.3063H9.25555L8.12211 22.5877H2.31064C2.11556 22.5877 1.9577 22.7456 1.9577 22.9406C1.9577 23.1357 2.11556 23.2936 2.31064 23.2936H21.6897C21.8847 23.2936 22.0426 23.1357 22.0426 22.9406C22.0426 22.7456 21.8847 22.5877 21.6897 22.5877Z" fill="#727489"/>
</svg>
